<?xml version="1.0" standalone="no"?>
<!DOCTYPE svg PUBLIC "-//W3C//DTD SVG 20010904//EN"
 "http://www.w3.org/TR/2001/REC-SVG-20010904/DTD/svg10.dtd">
<svg version="1.0" xmlns="http://www.w3.org/2000/svg"
 width="246.000000pt" height="204.000000pt" viewBox="0 0 246.000000 204.000000"
 preserveAspectRatio="xMidYMid meet">
<g transform="translate(0.000000,204.000000) scale(0.100000,-0.100000)"
fill="#000000" stroke="none">
<path d="M985 2026 c19 -15 19 -16 -8 -6 -16 5 -26 6 -23 1 9 -14 -16 -20 -38
-9 -12 7 -22 6 -30 -2 -8 -8 -6 -9 9 -4 13 4 17 4 10 -3 -5 -5 -29 -15 -52
-23 -23 -7 -51 -21 -62 -32 -23 -21 -36 -24 -25 -5 4 6 -4 2 -18 -11 -13 -12
-27 -20 -30 -17 -3 3 -11 -1 -18 -10 -7 -8 -21 -15 -32 -15 -16 0 -18 -3 -10
-13 8 -10 6 -13 -10 -14 -11 -1 -30 -11 -42 -22 -27 -25 -36 -26 -36 -5 0 11
5 14 16 10 15 -6 15 -4 3 11 -12 15 -12 16 6 10 20 -7 20 -7 1 8 -11 8 -25 15
-30 14 -6 0 -5 -3 1 -6 10 -3 10 -10 2 -24 -5 -11 -7 -29 -4 -39 8 -25 -15
-36 -44 -21 -20 11 -33 2 -37 -27 -2 -10 1 -11 12 -1 11 9 14 9 14 0 0 -7 5
-9 11 -5 8 4 7 9 -2 15 -10 6 -10 9 -2 9 30 0 11 -45 -22 -50 -5 -1 -9 -6 -8
-10 3 -10 -33 -24 -62 -25 -14 0 -20 -8 -22 -27 -1 -15 2 -30 7 -33 5 -3 -5
-26 -23 -51 -22 -32 -37 -44 -49 -40 -10 2 -16 0 -12 -5 3 -5 13 -9 22 -10 11
0 12 -3 5 -6 -7 -2 -13 -13 -13 -23 0 -10 -9 -26 -21 -34 -12 -8 -18 -19 -14
-26 4 -6 -1 -17 -11 -24 -11 -8 -15 -21 -11 -35 3 -11 1 -19 -4 -15 -5 3 -10
-1 -10 -8 -4 -50 -9 -71 -19 -83 -6 -7 -7 -21 -3 -30 4 -11 2 -16 -3 -12 -12
7 -12 6 -19 -153 -4 -73 -2 -158 5 -205 6 -44 12 -89 14 -101 1 -11 5 -25 9
-31 4 -6 4 -19 1 -30 -4 -13 -3 -15 4 -4 6 8 12 9 16 3 3 -5 -1 -15 -9 -22
-20 -17 -19 -21 13 -59 15 -19 28 -37 28 -42 1 -5 2 -16 3 -24 1 -9 7 -12 19
-8 14 5 15 3 4 -8 -6 -7 -12 -20 -11 -29 0 -10 3 -9 9 5 7 17 9 17 9 3 1 -10
6 -18 12 -18 5 0 7 -4 4 -10 -3 -5 -2 -10 4 -10 7 0 7 -8 -1 -25 -6 -14 -16
-25 -22 -25 -6 0 -5 -4 3 -9 9 -6 23 -4 38 6 13 8 23 11 23 5 0 -6 -6 -13 -12
-15 -10 -4 -10 -6 0 -6 15 -1 56 -41 58 -58 1 -7 -2 -11 -7 -7 -5 3 -7 9 -4
14 3 4 -2 10 -10 14 -8 3 -17 0 -21 -6 -4 -6 -3 -8 4 -4 6 3 13 -3 17 -14 3
-11 13 -20 21 -20 18 0 64 -44 64 -62 0 -10 2 -10 9 0 6 10 14 5 30 -21 12
-19 33 -38 47 -41 13 -4 23 -10 20 -15 -3 -4 5 -18 19 -31 14 -13 21 -29 18
-39 -5 -12 -3 -13 6 -5 10 9 9 18 -4 40 l-17 29 22 -25 c12 -13 28 -25 37 -26
8 -2 25 -11 37 -22 23 -21 56 -36 70 -33 5 1 4 -4 -3 -13 -15 -17 0 -29 25
-19 10 4 15 2 11 -3 -7 -12 34 -11 53 1 8 5 11 4 7 -2 -8 -13 39 -27 55 -17 7
4 8 3 4 -4 -5 -8 5 -12 31 -13 61 -3 67 -4 78 -10 17 -11 268 -9 281 2 7 5 23
9 36 8 42 -4 59 1 52 13 -4 6 -3 8 4 4 6 -3 29 1 52 10 22 9 43 14 47 11 9
-10 44 13 38 24 -4 5 1 9 9 9 9 0 16 -5 16 -12 0 -7 5 -5 13 5 6 9 32 25 57
37 25 11 35 18 23 15 -12 -3 -24 -1 -28 4 -3 6 0 8 8 5 8 -3 18 0 22 5 3 6 10
9 15 6 12 -8 52 14 46 24 -3 4 0 8 7 9 50 3 78 18 71 37 -4 8 -11 12 -16 9 -6
-4 -6 -9 2 -14 8 -5 8 -9 -3 -13 -9 -3 -14 0 -13 8 2 16 14 30 24 31 16 1 80
33 86 42 3 6 1 14 -4 17 -17 10 20 34 52 35 31 0 46 17 23 26 -9 4 -14 13 -11
21 4 9 2 12 -7 7 -8 -5 -8 -2 2 9 7 9 16 15 20 13 4 -3 13 0 21 6 12 8 12 9
-2 4 -10 -3 -18 -3 -18 1 0 3 8 12 18 19 9 7 18 17 18 23 1 6 2 16 3 21 0 6 5
10 10 10 6 0 8 -10 6 -22 -4 -17 -2 -19 7 -10 10 10 10 17 0 32 -10 17 -10 20
3 20 15 0 19 11 16 39 -2 7 2 10 8 6 7 -4 11 3 11 17 0 14 7 33 15 44 8 10 15
33 15 49 1 29 1 29 16 10 15 -19 15 -19 9 7 -4 15 -3 33 1 40 5 7 9 29 9 48 1
19 6 44 11 55 15 32 11 312 -5 375 -8 30 -14 63 -13 73 0 9 -3 15 -7 13 -4 -3
-8 1 -8 9 0 8 4 12 9 9 4 -3 8 0 8 5 0 6 -5 11 -11 11 -6 0 -8 9 -4 20 7 22
-10 28 -19 8 -3 -7 -5 -4 -4 7 2 21 -50 135 -67 147 -6 5 -3 8 7 8 9 0 20 4
23 10 3 5 0 7 -9 4 -8 -3 -21 -2 -28 2 -9 6 -6 10 12 15 l25 7 -27 1 c-17 1
-32 9 -39 22 -6 12 -30 42 -53 67 -22 25 -35 42 -28 38 6 -4 12 -3 12 3 0 6 7
8 16 4 10 -4 8 3 -7 18 -21 21 -26 22 -37 9 -11 -13 -12 -13 -10 4 2 11 -4 20
-14 21 -27 5 -30 -10 -8 -30 11 -10 20 -22 20 -26 0 -4 -20 11 -44 34 -24 23
-42 44 -40 46 2 2 12 -4 23 -13 12 -11 21 -13 25 -7 4 5 -3 15 -14 21 -15 8
-19 18 -15 37 6 37 -11 56 -38 42 -17 -10 -19 -9 -13 7 5 15 4 16 -5 7 -14
-14 -3 -34 16 -26 9 3 15 -1 15 -8 0 -11 3 -11 10 1 8 12 9 10 7 -7 -2 -12 -7
-26 -12 -30 -4 -5 -5 -3 -1 4 5 10 -7 25 -24 29 -22 4 -39 18 -33 27 4 7 0 8
-12 3 -15 -5 -16 -4 -5 9 10 13 9 15 -8 15 -11 0 -25 6 -31 14 -7 8 -21 13
-31 11 -14 -3 -18 1 -15 16 2 10 0 19 -6 19 -5 0 -9 -8 -9 -17 0 -15 -2 -16
-9 -3 -6 8 -7 19 -3 25 3 5 -1 4 -10 -3 -10 -8 -19 -9 -22 -3 -3 5 0 12 6 14
7 3 2 6 -12 6 -35 2 -152 45 -150 56 1 5 -4 11 -12 13 -9 2 -8 0 2 -8 12 -10
10 -11 -10 -6 -74 18 -83 19 -75 7 6 -10 3 -11 -14 -1 -29 15 -301 12 -301 -4
0 -7 -3 -7 -8 -1 -4 6 -18 11 -32 13 -24 4 -25 3 -5 -12z m438 -36 c43 -11 83
-17 90 -14 7 4 9 4 5 -1 -4 -4 25 -23 65 -42 92 -44 168 -93 162 -103 -3 -5 9
-18 27 -30 l33 -22 -30 26 c-16 14 -25 26 -19 26 6 0 21 -11 34 -25 13 -14 19
-25 14 -25 -5 0 14 -21 41 -47 27 -27 53 -47 57 -46 12 4 67 -69 62 -82 -3 -7
0 -16 7 -21 8 -5 10 -3 4 6 -5 8 -4 11 3 6 6 -4 9 -13 6 -20 -3 -8 0 -17 7
-22 8 -5 10 -3 4 7 -5 8 -4 11 0 7 5 -5 9 -19 11 -32 2 -22 -5 -28 -82 -55
-47 -17 -99 -32 -116 -34 -27 -2 -31 2 -43 38 -18 60 -79 188 -113 237 l-30
44 53 34 c30 19 51 38 48 43 -3 5 -8 5 -12 0 -3 -4 -26 -21 -50 -37 l-44 -28
-66 65 c-36 36 -93 82 -126 102 l-60 36 40 -7 c22 -4 37 -3 33 1 -3 4 -28 9
-55 11 -26 2 -78 8 -115 13 -44 7 -92 7 -135 1 -38 -6 -88 -12 -113 -14 -129
-12 -339 -123 -463 -244 -214 -208 -332 -532 -297 -815 11 -94 39 -221 47
-213 2 2 -3 30 -11 62 -12 48 -36 204 -36 236 0 5 69 7 152 6 l153 -3 8 -120
c4 -66 16 -154 26 -195 11 -41 18 -76 17 -77 -5 -6 -230 -82 -233 -80 -2 2
-19 39 -38 83 -19 43 -35 73 -35 66 0 -7 16 -47 35 -89 40 -87 26 -85 178 -29
l98 36 8 -23 c62 -160 125 -286 151 -302 17 -10 11 4 -23 58 -27 44 -97 188
-97 201 0 4 225 -130 290 -172 14 -9 28 -15 33 -14 4 1 7 -1 7 -5 0 -5 24 -21
53 -37 l53 -28 62 40 61 39 83 -13 c46 -8 91 -14 101 -14 14 0 16 -5 10 -28
-21 -85 -98 -213 -145 -242 -58 -35 -58 -34 -58 133 0 92 -4 146 -9 138 -5 -8
-8 -76 -8 -152 2 -124 0 -139 -15 -139 -44 0 -124 103 -168 215 -13 33 -27 64
-31 69 -14 16 -201 -56 -272 -106 -29 -21 -28 -32 6 -49 21 -10 21 -9 -1 8
l-23 19 52 28 52 29 51 -55 c61 -65 120 -107 201 -141 35 -15 51 -26 39 -27
-38 0 -84 12 -78 22 3 5 -5 6 -18 3 -13 -3 -35 -1 -48 5 -23 9 -22 10 10 5 23
-3 15 2 -25 15 -33 11 -67 17 -75 14 -8 -3 -11 -2 -7 2 9 9 -88 63 -111 61
-21 -1 -74 32 -67 43 2 4 -22 29 -55 55 -73 59 -134 131 -124 146 4 8 3 9 -4
5 -7 -4 -26 16 -48 49 -37 56 -48 67 -38 40 4 -8 3 -15 0 -15 -13 0 -87 165
-111 246 -14 48 -30 140 -37 203 -33 345 125 697 405 900 112 82 286 154 405
168 26 3 49 8 52 10 12 12 241 -8 313 -27z m-330 -42 c-40 -45 -99 -156 -110
-208 -6 -35 -5 -35 -116 8 l-68 25 48 50 c26 27 82 72 123 98 75 49 87 63 27
33 -49 -25 -142 -100 -175 -140 l-29 -35 -47 28 c-25 15 -46 31 -46 34 0 12
153 86 234 114 44 15 89 24 102 21 12 -3 33 -2 46 3 46 19 50 10 11 -31z m102
-18 c0 -58 -1 -61 -24 -58 -24 3 -24 3 -22 -91 l2 -94 -80 6 c-71 6 -79 5 -74
-10 4 -11 3 -14 -5 -9 -8 5 -10 1 -5 -11 4 -13 3 -15 -5 -8 -12 11 26 134 63
204 26 52 105 131 129 131 19 0 21 -5 21 -60z m202 16 c61 -32 203 -150 203
-168 0 -6 -161 -71 -165 -66 -1 2 -12 30 -24 63 -33 88 -91 178 -130 199 -9 5
-4 -4 10 -20 40 -43 86 -123 113 -196 21 -54 23 -67 11 -72 -9 -3 -12 0 -9 9
5 12 0 12 -28 5 -18 -6 -52 -10 -75 -10 l-43 0 0 90 c0 89 0 90 -25 90 -24 0
-25 3 -25 60 l0 60 58 -4 c43 -2 76 -12 129 -40z m-177 -106 c11 18 22 -75 16
-134 -4 -30 -3 -43 2 -32 6 14 11 16 16 8 4 -7 26 -12 50 -12 23 0 48 -6 55
-12 11 -10 13 -10 7 0 -5 8 0 12 13 12 23 0 29 -16 9 -23 -7 -2 1 -4 17 -4 17
0 24 2 18 4 -7 3 -13 9 -13 14 0 4 7 5 17 2 12 -5 14 -3 8 7 -5 8 -4 11 3 6 6
-4 8 -14 5 -23 -6 -15 -5 -16 9 -3 9 8 14 18 11 23 -5 9 0 9 21 1 9 -3 16 -10
16 -16 0 -5 -4 -6 -10 -3 -5 3 -10 0 -10 -9 0 -8 6 -16 13 -19 6 -2 0 -8 -15
-12 -16 -4 -28 -10 -28 -14 0 -3 -41 -5 -90 -3 -52 2 -88 7 -85 13 4 5 1 9 -4
9 -6 0 -11 -6 -11 -13 0 -8 -9 -22 -20 -32 -17 -15 -20 -31 -20 -95 0 -46 5
-81 12 -88 9 -9 8 -15 -8 -27 -18 -14 -18 -16 -1 -29 15 -11 17 -31 17 -147 0
-74 -4 -138 -8 -144 -4 -5 -18 -10 -32 -10 -25 0 -25 0 -27 105 -2 58 -4 131
-6 163 -3 53 5 74 16 45 3 -8 6 -6 6 5 1 9 -4 17 -10 17 -7 0 -9 33 -7 98 4
130 4 130 -130 133 -90 1 -102 4 -98 18 3 9 1 23 -5 31 -9 13 -10 12 -5 -2 6
-20 -2 -48 -13 -48 -13 0 1 61 16 67 7 3 22 -2 31 -11 17 -14 19 -14 36 5 10
12 24 18 32 15 9 -3 34 -6 55 -6 22 0 38 -4 35 -8 -3 -5 9 -6 27 -3 28 4 29 5
9 10 -21 6 -22 7 -5 19 14 10 17 23 15 62 -3 37 0 50 10 50 8 0 5 5 -6 12 -18
10 -18 11 5 24 16 8 25 9 28 2 2 -6 6 -6 11 2z m-486 -40 l54 -31 -42 -62
c-23 -34 -59 -107 -81 -162 -21 -55 -41 -102 -43 -105 -2 -3 -55 13 -117 34
-133 46 -131 32 -24 167 54 67 180 189 197 189 1 0 26 -14 56 -30z m133 -66
c113 -43 113 -43 68 -43 l-40 -1 0 -55 c0 -51 2 -55 24 -55 18 0 22 -4 16 -17
-4 -10 -12 -53 -19 -95 -7 -43 -15 -81 -19 -84 -12 -12 -257 41 -257 56 0 36
138 320 156 320 2 0 34 -12 71 -26z m773 -19 c36 -53 95 -176 114 -239 l14
-44 -72 -17 c-210 -48 -189 -53 -204 50 -7 47 -15 92 -18 100 -5 11 1 15 17
15 22 0 24 4 25 55 l1 54 -41 3 c-32 3 -37 5 -21 12 84 33 141 54 147 55 4 1
21 -19 38 -44z m-1165 -13 c-6 -4 -22 -18 -36 -30 l-26 -23 0 25 c0 14 3 26 8
26 5 0 9 -5 9 -11 0 -5 10 -3 22 5 23 16 40 22 23 8z m675 -232 l0 -110 -37 0
c-21 0 -74 3 -119 6 l-81 7 18 101 c10 55 19 102 19 104 0 1 45 2 100 2 l100
0 0 -110z m318 43 c6 -38 14 -85 17 -105 l6 -38 -38 -1 c-21 0 -73 -4 -115 -7
l-78 -8 0 113 0 113 98 0 99 0 11 -67z m-231 -75 c-2 -24 -4 -5 -4 42 0 47 2
66 4 43 2 -24 2 -62 0 -85z m803 62 c11 -23 18 -45 15 -49 -7 -13 5 -42 16
-35 5 3 6 -2 3 -10 -3 -9 -1 -16 5 -16 6 0 8 -7 4 -17 -4 -11 -3 -14 5 -9 7 4
13 2 13 -3 1 -6 3 -23 4 -38 1 -16 9 -59 18 -98 8 -38 18 -98 21 -132 l7 -63
-156 0 -155 0 0 44 c0 60 -17 185 -37 273 -9 40 -15 74 -12 76 2 1 49 17 104
36 55 18 106 35 114 38 8 3 11 1 8 -4 -3 -5 0 -10 8 -10 12 0 12 5 -1 29 -8
15 -12 28 -9 28 2 0 14 -18 25 -40z m-1527 -40 c95 -31 107 -37 102 -55 -20
-72 -36 -175 -43 -265 l-7 -105 -153 -3 -153 -3 5 33 c3 18 8 58 11 88 14 128
92 356 119 348 6 -2 59 -19 119 -38z m220 -66 c26 -7 75 -16 108 -20 l60 -7
-5 -41 c-3 -22 -8 -98 -12 -168 l-6 -128 -149 0 -149 0 0 38 c0 59 19 210 36
284 18 76 8 73 117 42z m1060 -61 c16 -82 37 -246 37 -285 0 -16 -14 -18 -155
-18 l-155 0 -1 118 c0 64 -4 138 -8 165 -9 53 -17 48 94 67 33 6 80 17 105 24
25 8 50 15 56 15 6 1 18 -38 27 -86z m-695 11 l52 -5 0 -155 0 -154 -131 0
-131 0 6 63 c3 34 8 108 12 165 l7 102 66 -5 c36 -3 90 -8 119 -11z m142 6 c0
-5 -5 -10 -11 -10 -5 0 -7 5 -4 10 3 6 8 10 11 10 2 0 4 -4 4 -10z m254 -12
c3 -13 9 -87 12 -165 l7 -143 -126 0 -127 0 0 154 0 155 53 5 c46 5 82 9 153
14 15 1 24 -5 28 -20z m-614 -372 c0 -29 3 -86 6 -127 l7 -75 -69 -45 c-78
-52 -125 -78 -165 -89 -27 -8 -28 -7 -43 63 -18 85 -36 224 -36 283 l0 42 150
1 150 0 0 -53z m270 48 c48 -6 48 -6 45 -43 -2 -34 -5 -37 -66 -63 -35 -15
-78 -40 -96 -57 -18 -17 -38 -31 -45 -31 -7 0 -30 -9 -51 -20 l-37 -20 0 43
c0 24 -3 78 -6 120 l-7 75 108 1 c60 1 129 -2 155 -5z m360 -56 c0 -70 6 -71
-111 3 -61 38 -87 49 -98 42 -9 -5 -33 -19 -53 -32 l-38 -23 0 31 c0 36 7 37
183 38 l117 1 0 -60z m320 48 c0 -44 -23 -231 -36 -291 -22 -101 -18 -95 -59
-84 -51 14 -57 3 -7 -12 l40 -12 -18 -51 c-24 -70 -95 -215 -123 -249 l-22
-28 -58 25 c-32 15 -63 26 -70 26 -36 1 -38 15 -17 101 12 48 30 91 40 100 17
15 193 120 240 144 25 12 25 21 0 28 -14 4 -20 14 -20 35 0 28 -9 36 -97 89
l-98 59 -3 66 -3 65 155 1 c126 1 156 -1 156 -12z m316 -29 c-3 -23 -8 -69
-12 -102 -12 -117 -95 -340 -123 -332 -60 19 -211 74 -217 79 -3 4 1 38 10 75
18 76 36 216 36 279 l0 42 156 0 155 1 -5 -42z m-601 -117 c77 -46 142 -85
144 -87 3 -2 -1 -9 -7 -15 -9 -9 -12 -9 -12 0 0 9 -6 9 -25 0 -14 -6 -25 -19
-25 -30 0 -10 -4 -18 -10 -18 -5 0 -7 8 -4 18 4 10 2 13 -3 7 -4 -5 -37 -23
-73 -40 -99 -45 -123 -60 -128 -75 -4 -11 2 -9 17 4 11 11 23 17 26 14 7 -7
-35 -42 -67 -56 -16 -6 -28 -8 -28 -3 0 4 -7 8 -15 8 -9 0 -14 -6 -11 -14 4
-10 1 -11 -10 -5 -12 6 -27 -1 -57 -30 -23 -21 -44 -38 -48 -38 -4 0 -14 -6
-21 -14 -8 -7 -34 -24 -58 -36 -36 -18 -41 -24 -27 -31 11 -7 27 -4 49 7 47
24 141 89 157 108 13 16 81 39 89 31 3 -2 -1 -18 -8 -34 -9 -23 -21 -32 -45
-37 -19 -3 -36 -12 -39 -19 -4 -13 -198 -145 -211 -145 -4 0 -94 53 -201 117
-187 113 -194 119 -194 149 0 28 6 36 53 62 28 16 85 55 126 86 53 40 83 56
105 56 29 0 74 -19 51 -21 -33 -3 -51 -10 -61 -23 -6 -9 -14 -16 -18 -16 -4 0
-13 -6 -20 -12 -8 -7 -24 -20 -36 -28 -12 -8 -32 -22 -44 -31 -11 -9 -36 -24
-54 -33 -19 -10 -31 -20 -28 -24 7 -6 87 36 98 52 4 6 8 7 8 3 0 -8 2 -6 60
43 19 17 52 39 73 50 l38 19 62 -36 c61 -36 61 -37 33 -44 -16 -4 -54 -28 -85
-52 -31 -24 -75 -54 -97 -65 -23 -12 -49 -28 -58 -37 -14 -14 -18 -14 -48 1
l-32 17 49 25 c28 13 51 29 53 33 2 5 9 9 16 9 7 0 24 9 37 21 13 11 33 28 44
37 11 9 33 23 49 30 29 13 30 30 1 19 -8 -4 -17 -7 -20 -7 -3 0 -13 -8 -23
-17 -10 -10 -29 -25 -42 -33 -12 -8 -28 -19 -34 -25 -14 -12 -33 -24 -95 -60
l-44 -25 -49 31 c-27 17 -51 29 -54 26 -3 -3 78 -55 180 -117 158 -94 186
-115 186 -135 0 -38 17 -38 22 0 2 19 0 35 -5 35 -21 0 -200 115 -184 118 9 2
17 7 17 12 0 5 10 12 23 16 12 4 32 14 43 23 12 9 32 23 44 31 12 8 36 27 52
43 17 15 38 27 47 27 9 0 22 5 28 11 8 8 26 3 67 -21 31 -17 56 -33 56 -36 0
-2 -15 -10 -32 -18 -18 -7 -43 -22 -55 -32 -11 -11 -31 -26 -43 -34 -12 -8
-28 -20 -35 -27 -7 -7 -15 -9 -19 -6 -3 4 -6 2 -6 -4 0 -6 -11 -14 -25 -17
-14 -4 -25 -11 -25 -17 0 -6 -4 -7 -10 -4 -5 3 -10 1 -10 -4 0 -6 5 -11 12
-11 12 0 96 47 114 64 6 6 21 18 34 26 12 8 33 25 46 38 14 12 31 22 39 22 7
0 15 5 17 11 2 7 18 3 41 -11 21 -12 40 -20 43 -18 2 3 -76 54 -175 113 -212
126 -211 123 -68 190 51 23 112 56 136 73 l44 30 46 -27 c25 -15 109 -65 186
-111z m155 -138 c0 -22 -10 -34 -51 -61 -54 -35 -171 -91 -190 -91 -7 0 -18
-8 -25 -17 -12 -17 -13 -17 -19 0 -13 32 24 68 106 105 55 25 75 38 67 44 -9
6 -6 7 7 4 13 -4 34 3 55 19 45 31 50 31 50 -3z m-1400 -86 c0 -12 -14 5 -31
39 -8 16 -6 15 10 -4 12 -13 21 -28 21 -35z m1180 20 c0 -3 -4 -8 -10 -11 -5
-3 -10 -1 -10 4 0 6 5 11 10 11 6 0 10 -2 10 -4z m-806 -83 c-16 -12 -20 -11
-26 4 -11 29 -9 33 15 42 18 7 23 5 25 -12 2 -12 -4 -27 -14 -34z m1340 -58
c-6 -5 -23 -28 -37 -50 -13 -22 -37 -53 -52 -70 -14 -16 -38 -45 -52 -63 -14
-17 -47 -48 -74 -68 -27 -20 -47 -39 -44 -43 10 -18 -45 -1 -89 26 l-47 29 21
27 c28 36 116 215 129 265 l11 41 123 -42 c88 -30 120 -45 111 -52z m-744 5
c-25 -22 -49 -40 -55 -40 -5 0 1 8 13 18 13 9 35 27 50 39 46 39 40 24 -8 -17z
m177 -93 l-20 -78 -41 7 c-23 4 -65 10 -95 13 l-55 6 114 67 c62 37 115 67
116 65 1 -1 -7 -37 -19 -80z m-1012 21 c44 -68 121 -153 175 -194 27 -21 48
-40 45 -42 -2 -2 -19 8 -38 22 -21 16 -37 23 -40 16 -3 -6 -4 -5 -3 2 2 7 -23
41 -55 75 -53 58 -119 144 -119 157 0 13 9 4 35 -36z m-69 4 c-18 -16 -18 -16
-6 6 6 13 14 21 18 18 3 -4 -2 -14 -12 -24z m834 20 c0 -5 -12 -14 -27 -21
l-28 -12 25 21 c29 22 30 23 30 12z m770 -102 c0 -5 -9 -8 -19 -7 -15 1 -17 4
-9 14 11 13 28 9 28 -7z m-990 -62 c0 -5 18 -48 39 -94 28 -59 55 -99 92 -135
44 -43 49 -50 28 -47 -13 2 -23 9 -22 16 2 6 -4 12 -13 12 -9 0 -50 16 -90 35
-83 40 -216 157 -198 175 13 13 147 59 157 53 4 -2 7 -9 7 -15z m500 8 c47
-14 204 -88 226 -107 16 -13 -105 -80 -207 -113 -38 -12 -66 -26 -62 -31 5 -4
-3 -4 -16 0 -13 4 -21 3 -18 -2 3 -5 -2 -9 -11 -10 -9 -1 -35 -4 -57 -7 l-40
-7 35 14 c88 34 135 64 200 124 38 36 70 70 70 75 0 6 -34 -22 -76 -62 -72
-68 -176 -130 -219 -130 -9 0 -18 -7 -21 -15 -4 -8 -18 -15 -33 -14 -23 0 -24
1 -6 8 52 21 127 125 166 229 13 34 24 62 24 62 0 0 20 -6 45 -14z m430 -10
c0 -11 -19 -15 -25 -6 -3 5 1 10 9 10 9 0 16 -2 16 -4z m-1084 -194 c-5 -4
-86 36 -86 43 0 3 20 -5 45 -17 24 -12 43 -23 41 -26z m-1 -32 c-3 -5 -12 -10
-18 -10 -7 0 -6 4 3 10 19 12 23 12 15 0z m30 0 c3 -5 1 -10 -4 -10 -6 0 -11
5 -11 10 0 6 2 10 4 10 3 0 8 -4 11 -10z m705 6 c0 -3 -4 -8 -10 -11 -5 -3
-10 -1 -10 4 0 6 5 11 10 11 6 0 10 -2 10 -4z"/>
<path d="M1517 1941 c39 -16 96 -43 126 -60 30 -17 58 -31 63 -31 5 0 -18 16
-51 35 -59 34 -181 86 -200 84 -6 0 22 -13 62 -28z"/>
<path d="M1574 1873 c2 -9 8 -18 15 -19 6 -1 7 0 1 3 -5 2 -8 9 -5 13 3 5 1
11 -4 14 -5 4 -8 -2 -7 -11z"/>
<path d="M1785 1741 c-3 -5 -2 -12 3 -15 5 -3 9 1 9 9 0 17 -3 19 -12 6z"/>
<path d="M1712 1711 c-11 -6 -10 -10 0 -19 11 -8 14 -7 14 9 0 10 0 19 -1 19
0 0 -6 -4 -13 -9z"/>
<path d="M1918 1652 c13 -17 28 -35 34 -39 7 -3 2 8 -10 25 -13 17 -28 35 -34
39 -7 3 -2 -8 10 -25z"/>
<path d="M1840 1650 c0 -5 5 -10 11 -10 5 0 7 5 4 10 -3 6 -8 10 -11 10 -2 0
-4 -4 -4 -10z"/>
<path d="M1724 1640 c2 -16 20 -14 24 2 3 10 2 10 -6 -1 -7 -9 -11 -10 -15 -2
-4 7 -5 8 -3 1z"/>
<path d="M1964 1542 c3 -5 0 -13 -6 -15 -9 -4 -10 -6 -1 -6 17 -1 25 16 12 25
-7 4 -9 3 -5 -4z"/>
<path d="M1791 1504 c0 -11 3 -14 6 -6 3 7 2 16 -1 19 -3 4 -6 -2 -5 -13z"/>
<path d="M307 849 c4 -13 8 -18 11 -10 2 7 -1 18 -6 23 -8 8 -9 4 -5 -13z"/>
<path d="M571 684 c0 -11 3 -14 6 -6 3 7 2 16 -1 19 -3 4 -6 -2 -5 -13z"/>
<path d="M367 674 c7 -3 9 -13 6 -22 -4 -14 -3 -14 5 -2 12 16 7 30 -11 29 -9
0 -9 -2 0 -5z"/>
<path d="M567 649 c7 -7 15 -10 18 -7 3 3 -2 9 -12 12 -14 6 -15 5 -6 -5z"/>
<path d="M386 633 c-6 -14 -5 -15 5 -6 7 7 10 15 7 18 -3 3 -9 -2 -12 -12z"/>
<path d="M390 585 c5 -7 6 -16 2 -21 -4 -5 -3 -5 2 -1 15 12 15 34 0 34 -9 0
-11 -4 -4 -12z"/>
<path d="M573 535 c0 -7 10 -10 24 -7 13 2 23 6 23 7 0 1 -10 5 -23 7 -14 3
-24 0 -24 -7z"/>
<path d="M730 471 c0 -10 19 -25 25 -20 1 2 -3 10 -11 17 -8 7 -14 8 -14 3z"/>
<path d="M646 447 c3 -10 9 -15 12 -12 3 3 0 11 -7 18 -10 9 -11 8 -5 -6z"/>
<path d="M513 417 c0 -7 11 -14 24 -15 13 -1 23 3 23 9 0 5 -5 7 -10 4 -6 -4
-17 -2 -24 4 -9 8 -13 7 -13 -2z"/>
<path d="M647 403 c3 -7 6 -13 8 -13 2 0 5 6 8 13 3 8 -1 14 -8 14 -7 0 -11
-6 -8 -14z"/>
<path d="M600 355 c0 -2 8 -9 18 -14 14 -7 19 -6 19 3 0 6 -9 13 -19 13 -10 1
-18 0 -18 -2z"/>
<path d="M604 321 c21 -23 26 -26 26 -11 0 5 -10 15 -22 21 -23 12 -23 12 -4
-10z"/>
<path d="M723 285 c0 -8 4 -12 9 -9 5 3 6 10 3 15 -9 13 -12 11 -12 -6z"/>
<path d="M1370 279 c0 -5 5 -7 10 -4 6 3 10 8 10 11 0 2 -4 4 -10 4 -5 0 -10
-5 -10 -11z"/>
<path d="M1083 183 c0 -6 5 -9 10 -6 6 4 8 0 4 -10 -4 -11 -2 -14 9 -10 11 4
12 9 4 18 -8 9 -7 14 2 18 7 3 4 5 -8 4 -11 -1 -21 -7 -21 -14z"/>
<path d="M1297 181 c-11 -14 -10 -14 6 -2 20 15 23 2 5 -18 -10 -11 -10 -12
-1 -7 7 4 17 15 22 25 13 23 -14 25 -32 2z"/>
<path d="M830 170 c-9 -6 -10 -10 -3 -10 6 0 15 5 18 10 8 12 4 12 -15 0z"/>
<path d="M1283 131 c0 -11 5 -18 9 -15 4 3 5 11 1 19 -7 21 -12 19 -10 -4z"/>
<path d="M962 1895 c-8 -10 -9 -15 -2 -15 6 0 8 -6 4 -12 -4 -8 -3 -10 2 -5 5
5 9 12 9 15 0 4 4 13 8 20 11 17 -5 15 -21 -3z"/>
<path d="M996 1874 c-8 -22 -4 -25 11 -9 7 8 9 16 4 19 -5 3 -12 -1 -15 -10z"/>
<path d="M905 1859 c-4 -6 -5 -12 -2 -15 2 -3 7 2 10 11 7 17 1 20 -8 4z"/>
<path d="M794 1828 l-19 -23 23 19 c21 18 27 26 19 26 -2 0 -12 -10 -23 -22z"/>
<path d="M855 1790 c-3 -6 1 -7 9 -4 18 7 21 14 7 14 -6 0 -13 -4 -16 -10z"/>
<path d="M930 1766 c0 -2 7 -7 16 -10 8 -3 12 -2 9 4 -6 10 -25 14 -25 6z"/>
<path d="M1420 1855 c-7 -9 -11 -17 -9 -20 3 -2 10 5 17 15 14 24 10 26 -8 5z"/>
<path d="M1522 1790 c0 -14 2 -19 5 -12 2 6 2 18 0 25 -3 6 -5 1 -5 -13z"/>
<path d="M1470 1766 c0 -2 7 -7 16 -10 8 -3 12 -2 9 4 -6 10 -25 14 -25 6z"/>
<path d="M1220 1757 l5 -52 3 44 c2 24 0 47 -5 52 -4 4 -6 -15 -3 -44z"/>
<path d="M1190 1686 c0 -2 7 -6 15 -10 8 -3 15 -1 15 4 0 6 -7 10 -15 10 -8 0
-15 -2 -15 -4z"/>
<path d="M1017 1656 c-4 -10 -1 -13 8 -9 8 3 12 9 9 14 -7 12 -11 11 -17 -5z"/>
<path d="M1250 1650 c0 -5 7 -7 15 -4 8 4 15 8 15 10 0 2 -7 4 -15 4 -8 0 -15
-4 -15 -10z"/>
<path d="M1180 1631 c0 -5 7 -12 16 -15 14 -5 15 -4 4 9 -14 17 -20 19 -20 6z"/>
<path d="M1220 1630 c0 -6 7 -10 15 -10 8 0 15 2 15 4 0 2 -7 6 -15 10 -8 3
-15 1 -15 -4z"/>
<path d="M1146 1623 c5 -5 12 -12 16 -18 4 -6 8 -2 8 8 0 9 -7 17 -17 17 -9 0
-12 -3 -7 -7z"/>
<path d="M1228 1603 c7 -3 16 -2 19 1 4 3 -2 6 -13 5 -11 0 -14 -3 -6 -6z"/>
<path d="M1222 1207 c-2 -94 -5 -119 -17 -123 -8 -4 -15 -11 -15 -16 0 -6 8
-4 17 3 15 12 16 12 9 -6 -5 -14 -4 -17 4 -9 7 7 10 56 7 140 l-3 129 -2 -118z"/>
<path d="M621 1756 c-9 -11 -9 -16 1 -22 7 -4 10 -4 6 1 -4 4 -3 14 3 22 6 7
9 13 6 13 -2 0 -10 -6 -16 -14z"/>
<path d="M663 1643 c1 -17 4 -19 14 -11 15 12 18 22 4 14 -5 -4 -11 0 -14 6
-3 7 -4 3 -4 -9z"/>
<path d="M466 1523 c-6 -14 -5 -15 5 -6 7 7 10 15 7 18 -3 3 -9 -2 -12 -12z"/>
<path d="M779 1688 c-3 -6 -6 -48 -4 -48 1 0 9 8 16 17 12 14 12 16 0 8 -11
-6 -13 -4 -8 8 5 13 1 25 -4 15z"/>
<path d="M700 1530 c0 -5 5 -10 11 -10 5 0 7 5 4 10 -3 6 -8 10 -11 10 -2 0
-4 -4 -4 -10z"/>
<path d="M1605 1679 c-4 -5 -4 -13 -1 -16 3 -4 6 0 6 8 0 11 2 11 10 -1 6 -9
10 -10 10 -3 0 17 -17 25 -25 12z"/>
<path d="M1442 1410 c0 -14 2 -19 5 -12 2 6 2 18 0 25 -3 6 -5 1 -5 -13z"/>
<path d="M2002 1380 c0 -14 2 -19 5 -12 2 6 2 18 0 25 -3 6 -5 1 -5 -13z"/>
<path d="M460 1446 c0 -2 7 -7 16 -10 8 -3 12 -2 9 4 -6 10 -25 14 -25 6z"/>
<path d="M517 1429 c7 -7 15 -10 18 -7 3 3 -2 9 -12 12 -14 6 -15 5 -6 -5z"/>
<path d="M390 1411 c0 -7 -4 -10 -8 -7 -4 2 -9 -5 -9 -16 -2 -21 -2 -21 14 1
8 12 12 25 9 28 -3 4 -6 1 -6 -6z"/>
<path d="M571 1354 c0 -11 3 -14 6 -6 3 7 2 16 -1 19 -3 4 -6 -2 -5 -13z"/>
<path d="M307 1149 c4 -13 8 -18 11 -10 2 7 -1 18 -6 23 -8 8 -9 4 -5 -13z"/>
<path d="M297 1087 c-3 -8 1 -14 8 -14 7 0 11 6 8 14 -3 7 -6 13 -8 13 -2 0
-5 -6 -8 -13z"/>
<path d="M632 1220 c0 -14 2 -19 5 -12 2 6 2 18 0 25 -3 6 -5 1 -5 -13z"/>
<path d="M622 1145 c0 -16 2 -22 5 -12 2 9 2 23 0 30 -3 6 -5 -1 -5 -18z"/>
<path d="M1552 1220 c0 -14 2 -19 5 -12 2 6 2 18 0 25 -3 6 -5 1 -5 -13z"/>
<path d="M1771 1174 c0 -11 3 -14 6 -6 3 7 2 16 -1 19 -3 4 -6 -2 -5 -13z"/>
<path d="M731 733 c7 -12 15 -20 18 -17 3 2 -3 12 -13 22 -17 16 -18 16 -5 -5z"/>
<path d="M757 739 c7 -7 15 -10 18 -7 3 3 -2 9 -12 12 -14 6 -15 5 -6 -5z"/>
<path d="M1124 950 c0 -13 4 -16 10 -10 7 7 7 13 0 20 -6 6 -10 3 -10 -10z"/>
<path d="M952 920 c0 -14 2 -19 5 -12 2 6 2 18 0 25 -3 6 -5 1 -5 -13z"/>
<path d="M1423 975 c0 -8 4 -12 9 -9 5 3 6 10 3 15 -9 13 -12 11 -12 -6z"/>
<path d="M1771 904 c0 -11 3 -14 6 -6 3 7 2 16 -1 19 -3 4 -6 -2 -5 -13z"/>
<path d="M1735 781 c-3 -5 -2 -12 3 -15 5 -3 9 1 9 9 0 17 -3 19 -12 6z"/>
<path d="M1764 779 c-3 -6 -2 -15 3 -20 5 -5 9 -1 9 11 0 23 -2 24 -12 9z"/>
<path d="M1470 370 c0 -5 5 -10 11 -10 5 0 7 5 4 10 -3 6 -8 10 -11 10 -2 0
-4 -4 -4 -10z"/>
<path d="M1580 355 c0 -7 30 -13 34 -7 3 4 -4 9 -15 9 -10 1 -19 0 -19 -2z"/>
<path d="M1600 320 c-9 -6 -10 -10 -3 -10 6 0 15 5 18 10 8 12 4 12 -15 0z"/>
<path d="M2101 934 c0 -11 3 -14 6 -6 3 7 2 16 -1 19 -3 4 -6 -2 -5 -13z"/>
<path d="M1820 650 c-6 -11 -8 -20 -6 -20 3 0 10 9 16 20 6 11 8 20 6 20 -3 0
-10 -9 -16 -20z"/>
<path d="M2001 650 c0 -8 4 -22 9 -30 12 -18 12 -2 0 25 -6 13 -9 15 -9 5z"/>
<path d="M1982 591 c-11 -7 -10 -9 3 -14 9 -4 14 -3 10 2 -3 5 1 12 7 14 7 3
9 6 3 6 -5 0 -16 -3 -23 -8z"/>
<path d="M1315 943 c-16 -8 -38 -22 -47 -31 -10 -8 -18 -11 -18 -6 0 5 -4 4
-8 -1 -4 -6 -27 -19 -52 -30 -65 -28 -110 -55 -110 -67 0 -10 9 -6 50 23 14 9
29 17 33 17 12 1 137 61 150 73 7 5 21 16 32 24 27 19 7 18 -30 -2z"/>
<path d="M1390 911 c0 -5 -16 -15 -35 -22 -19 -7 -35 -17 -35 -22 0 -4 -4 -5
-10 -2 -5 3 -10 1 -10 -4 0 -6 -3 -10 -7 -9 -5 1 -21 -5 -38 -14 -16 -8 -41
-19 -55 -23 -28 -9 -50 -29 -50 -45 0 -6 16 1 35 15 19 15 38 24 44 21 5 -3
11 -3 13 2 1 4 30 21 62 37 32 17 72 36 87 44 31 16 38 31 14 31 -8 0 -15 -4
-15 -9z"/>
<path d="M1468 883 c-10 -2 -18 -9 -18 -14 0 -6 -4 -7 -10 -4 -5 3 -10 2 -10
-3 0 -5 -19 -17 -42 -28 -24 -10 -46 -22 -49 -27 -3 -5 -8 -8 -10 -7 -2 0 -21
-6 -42 -15 -41 -17 -77 -44 -77 -59 0 -5 8 -2 18 7 10 9 53 32 97 52 44 20 82
40 85 44 3 4 19 13 37 20 17 7 34 19 37 27 3 8 4 13 3 13 -1 -1 -10 -3 -19 -6z"/>
<path d="M1520 835 c-14 -8 -50 -27 -80 -41 -30 -15 -58 -31 -61 -37 -3 -5 -9
-8 -13 -8 -22 3 -35 -2 -63 -27 -18 -15 -33 -31 -33 -36 0 -5 7 -3 15 4 8 6
20 8 27 4 7 -4 10 -4 6 1 -9 10 12 31 42 40 14 4 41 16 60 25 19 10 39 18 44
18 5 0 12 5 15 10 3 5 21 17 39 26 17 9 32 21 32 26 0 13 0 13 -30 -5z"/>
<path d="M1485 746 c-118 -60 -152 -82 -142 -92 2 -3 12 2 20 11 9 9 18 16 19
16 17 -1 48 14 48 22 0 6 3 7 7 4 3 -4 20 2 38 13 18 11 35 17 38 13 4 -3 7
-2 7 4 0 6 15 17 33 24 32 13 63 37 56 43 -2 2 -58 -24 -124 -58z"/>
<path d="M1099 591 c-51 -39 -97 -68 -101 -65 -4 3 -8 0 -8 -5 0 -6 -7 -11
-15 -11 -8 0 -15 -5 -15 -10 0 -13 65 13 85 34 8 8 24 18 35 21 11 3 20 11 20
16 0 5 6 9 14 9 8 0 16 3 18 8 7 16 70 62 78 57 5 -3 11 -1 15 5 3 5 -2 10
-13 10 -11 0 -61 -31 -113 -69z"/>
<path d="M1815 560 c-8 -13 5 -13 25 0 13 8 13 10 -2 10 -9 0 -20 -4 -23 -10z"/>
<path d="M1858 543 c7 -3 16 -2 19 1 4 3 -2 6 -13 5 -11 0 -14 -3 -6 -6z"/>
<path d="M1926 508 c3 -5 10 -6 15 -3 13 9 11 12 -6 12 -8 0 -12 -4 -9 -9z"/>
<path d="M1926 477 c3 -10 9 -15 12 -12 3 3 0 11 -7 18 -10 9 -11 8 -5 -6z"/>
<path d="M1864 428 c-4 -5 -1 -15 5 -21 9 -9 11 -8 6 6 -8 19 5 23 22 6 7 -7
12 -7 15 3 6 15 -39 21 -48 6z"/>
<path d="M955 290 c-3 -5 -1 -10 4 -10 6 0 11 5 11 10 0 6 -2 10 -4 10 -3 0
-8 -4 -11 -10z"/>
<path d="M1000 176 c0 -8 4 -17 9 -20 5 -4 7 3 4 14 -6 23 -13 26 -13 6z"/>
<path d="M940 171 c0 -6 4 -13 10 -16 6 -3 7 1 4 9 -7 18 -14 21 -14 7z"/>
<path d="M1525 249 c-4 -6 -4 -13 -1 -16 3 -4 6 -1 6 6 0 7 5 9 12 5 7 -4 8
-3 4 4 -9 15 -13 15 -21 1z"/>
<path d="M1405 200 c-3 -6 1 -7 9 -4 18 7 21 14 7 14 -6 0 -13 -4 -16 -10z"/>
<path d="M1435 190 c-3 -5 -1 -10 4 -10 6 0 11 5 11 10 0 6 -2 10 -4 10 -3 0
-8 -4 -11 -10z"/>
<path d="M1573 173 c4 -3 -1 -16 -10 -27 -18 -21 -18 -21 3 -3 11 9 24 14 28
10 4 -4 4 0 0 10 -3 9 -11 17 -17 17 -6 0 -7 -3 -4 -7z"/>
<path d="M726 1961 c-4 -5 3 -7 14 -4 23 6 26 13 6 13 -8 0 -17 -4 -20 -9z"/>
<path d="M1862 1786 c29 -15 65 -15 61 0 -2 4 -22 9 -45 11 -42 3 -42 2 -16
-11z"/>
<path d="M1984 1698 c0 -12 -5 -23 -13 -26 -8 -2 -11 0 -8 5 3 5 0 10 -8 10
-13 0 -13 -3 1 -18 17 -19 59 -23 45 -4 -5 5 -7 18 -6 27 2 10 0 20 -5 23 -4
2 -7 -5 -6 -17z"/>
<path d="M316 1493 c-6 -14 -5 -15 5 -6 7 7 10 15 7 18 -3 3 -9 -2 -12 -12z"/>
<path d="M580 209 c0 -5 5 -7 10 -4 6 3 10 8 10 11 0 2 -4 4 -10 4 -5 0 -10
-5 -10 -11z"/>
<path d="M679 132 c-11 -14 -11 -15 0 -5 7 6 20 9 27 6 8 -3 14 -3 14 0 0 14
-30 14 -41 -1z"/>
<path d="M1725 140 c-3 -6 1 -7 9 -4 18 7 21 14 7 14 -6 0 -13 -4 -16 -10z"/>
</g>
</svg>
